<?xml version="1.0" encoding="UTF-8"?>
<svg version="1.1" xmlns="http://www.w3.org/2000/svg" width="652" height="652">
<path d="M0 0 C73.7195122 0 73.7195122 0 86.1953125 10.921875 C93.06605791 18.3388303 94.97456855 26.05630279 95 36 C94.39443703 45.03078693 90.59241971 51.48741184 84.1875 57.75 C80.28683575 60.50341006 76.22830188 62.79188679 72 65 C73.16015625 65.41958984 73.16015625 65.41958984 74.34375 65.84765625 C84.85690753 69.89418099 91.2318929 74.26157611 96.08984375 84.5703125 C99.57130398 93.8641677 98.60061056 103.61742317 95.43359375 112.85546875 C91.11181361 122.33512275 83.79545104 127.21063435 74.72265625 131.625 C51.87258516 140.06490034 20.1790145 135 0 135 C0 90.45 0 45.9 0 0 Z M27 21 C27 32.22 27 43.44 27 55 C45.70174526 55.99151303 45.70174526 55.99151303 63.0625 50.125 C67.21901534 45.56624124 69.16173096 41.26129848 69 35 C68.16318952 30.17498641 66.50446596 27.01261646 62.5625 24.0625 C57.99862252 21.05054506 53.88750807 20.87778405 48.484375 20.90234375 C46.79393066 20.90609009 46.79393066 20.90609009 45.06933594 20.90991211 C43.64395508 20.91901611 42.21857422 20.92812012 40.75 20.9375 C36.2125 20.958125 31.675 20.97875 27 21 Z M27 75 C27 88.2 27 101.4 27 115 C48.42278566 116.13614132 48.42278566 116.13614132 67 107 C70.13569742 103.13263985 71.15009424 98.93545171 71 94 C69.91260303 88.61693564 68.09406137 83.770846 64 80 C57.66059598 76.49132423 51.73262562 74.86182891 44.48046875 74.90234375 C43.55903076 74.90484131 42.63759277 74.90733887 41.68823242 74.90991211 C40.53299072 74.91901611 39.37774902 74.92812012 38.1875 74.9375 C34.495625 74.958125 30.80375 74.97875 27 75 Z " fill="#191346" transform="translate(221,257)"/>
<path d="M0 0 C1.49708496 -0.01522705 1.49708496 -0.01522705 3.02441406 -0.03076172 C13.41803639 0.09194317 22.67905571 2.48087289 30.625 9.4375 C36.57346595 16.44508306 37.9429708 24.62083247 37.85205078 33.59765625 C37.85234283 34.36935654 37.85263489 35.14105682 37.85293579 35.93614197 C37.85155531 38.45754703 37.83605533 40.9786473 37.8203125 43.5 C37.8165778 45.25976398 37.81373299 47.01953006 37.81173706 48.77929688 C37.80413658 53.38899576 37.78451923 57.99856667 37.7623291 62.60821533 C37.74179309 67.32082387 37.73271882 72.03345327 37.72265625 76.74609375 C37.70126964 85.9766275 37.66611707 95.20703303 37.625 104.4375 C30.695 104.4375 23.765 104.4375 16.625 104.4375 C15.965 101.7975 15.305 99.1575 14.625 96.4375 C13.68398437 96.99179687 12.74296875 97.54609375 11.7734375 98.1171875 C10.51579396 98.84924867 9.25797192 99.58100325 8 100.3125 C7.07380859 100.85970703 7.07380859 100.85970703 6.12890625 101.41796875 C-1.04853792 105.57333116 -7.00667285 106.78062157 -15.25 106.75 C-16.10980469 106.76611328 -16.96960938 106.78222656 -17.85546875 106.79882812 C-27.28050853 106.80597914 -33.5657875 104.17485531 -40.38671875 97.6484375 C-46.58352691 90.75768422 -47.15397543 83.22159442 -46.75390625 74.25390625 C-46.01846967 66.84646769 -43.29762264 61.21744543 -37.72680664 56.22265625 C-27.93222235 48.7880045 -15.55713943 45.19518305 -4 41.5 C-2.47363142 41.00295593 -0.94758755 40.50491355 0.578125 40.00585938 C4.2567941 38.80492306 7.9395254 37.61737754 11.625 36.4375 C11.68594316 34.83510864 11.72948007 33.23204869 11.765625 31.62890625 C11.79172852 30.73631104 11.81783203 29.84371582 11.84472656 28.92407227 C11.81557946 26.14187618 11.81557946 26.14187618 9.375 23.375 C3.52384722 19.25259691 -3.46380906 19.90063506 -10.375 20.4375 C-18.37729364 22.08503104 -25.52886915 25.25809545 -32.71875 29.0703125 C-35.375 30.4375 -35.375 30.4375 -40.375 32.4375 C-40.375 25.1775 -40.375 17.9175 -40.375 10.4375 C-26.99496802 3.07848241 -15.12807757 0.10915254 0 0 Z M-18.9375 67.5625 C-21.89612397 71.42157474 -21.86838653 75.76860151 -21.375 80.4375 C-19.97279653 83.94300868 -18.78076082 85.17006673 -15.625 87.25 C-9.13361599 89.62185185 -4.3322747 88.33797881 1.90234375 85.99609375 C6.08531371 83.6015385 9.75182367 81.38956239 12.625 77.4375 C13.57861671 73.24093207 13.38889278 69.27557048 13.125 65 C13.08890625 63.88689453 13.0528125 62.77378906 13.015625 61.62695312 C12.92177387 58.89353903 12.79065759 56.16734587 12.625 53.4375 C3.68416409 53.4375 -12.22181596 61.99339616 -18.9375 67.5625 Z " fill="#191347" transform="translate(72.375,287.5625)"/>
<path d="M0 0 C0.94206299 -0.01015137 1.88412598 -0.02030273 2.85473633 -0.03076172 C13.46570934 0.10109775 22.98305235 2.46628874 31.1875 9.4375 C39.51459438 19.07939876 38.59322489 31.73122788 38.48046875 43.6953125 C38.47486391 45.45221594 38.47059801 47.20912411 38.46760559 48.96603394 C38.45622665 53.55933898 38.42682043 58.1523532 38.39349365 62.74554443 C38.36264178 67.44490629 38.34906814 72.14431576 38.33398438 76.84375 C38.30194307 86.0418141 38.24923308 95.23958721 38.1875 104.4375 C31.5875 104.4375 24.9875 104.4375 18.1875 104.4375 C17.5275 101.4675 16.8675 98.4975 16.1875 95.4375 C15.27871094 96.12585938 15.27871094 96.12585938 14.3515625 96.828125 C1.84531594 105.98654556 -9.38051519 108.44634265 -24.8125 106.4375 C-33.39699652 103.95089558 -39.3408875 99.32993041 -43.83203125 91.70703125 C-47.05412836 84.8067411 -47.01134792 76.04324343 -45.12109375 68.78125 C-41.02800225 58.77972097 -34.32640196 54.0140361 -24.8125 49.4375 C-20.15768923 47.54573587 -15.43873481 45.882123 -10.6875 44.25 C-9.47707031 43.82525391 -8.26664062 43.40050781 -7.01953125 42.96289062 C-0.63623618 40.72977924 5.76577438 38.55735996 12.1875 36.4375 C12.84562869 29.48340802 12.84562869 29.48340802 9.9375 23.375 C4.08634722 19.25259691 -2.90130906 19.90063506 -9.8125 20.4375 C-17.81479364 22.08503104 -24.96636915 25.25809545 -32.15625 29.0703125 C-34.8125 30.4375 -34.8125 30.4375 -39.8125 32.4375 C-39.8125 25.1775 -39.8125 17.9175 -39.8125 10.4375 C-26.6761961 3.21253286 -14.86416033 0.11277997 0 0 Z M0 58.0625 C-1.38155273 58.55943359 -1.38155273 58.55943359 -2.79101562 59.06640625 C-9.49896585 61.58962387 -16.24653004 64.63986446 -20.375 70.75 C-21.0370211 74.81670103 -21.06662767 78.48162301 -19.8125 82.4375 C-17.60708437 85.16372806 -14.94931548 86.86909226 -11.8125 88.4375 C-3.71342603 89.28115354 3.00322987 86.26045084 9.47265625 81.53125 C11.97067498 79.27994917 13.05303424 78.0095562 13.82788086 74.71313477 C13.97427311 71.6054074 13.88790265 68.60431419 13.6875 65.5 C13.63335937 63.90188477 13.63335937 63.90188477 13.578125 62.27148438 C13.48430984 59.65638684 13.35323994 57.04886019 13.1875 54.4375 C8.45297543 54.4375 4.39407344 56.40606382 0 58.0625 Z " fill="#191347" transform="translate(367.8125,287.5625)"/>
<path d="M0 0 C0 7.59 0 15.18 0 23 C-2.84002667 21.57998666 -5.47470055 20.12076179 -8.1875 18.5 C-16.0721135 14.12539447 -25.01577577 12.47509438 -33.8359375 14.72265625 C-42.13685479 17.47108329 -46.23702806 21.50260396 -50.88671875 28.7421875 C-55.56441196 38.22887759 -55.72181737 51.09177325 -52.375 61.0625 C-49.32657134 68.07601768 -45.57413698 74.22762014 -38.31640625 77.3125 C-27.87014068 80.41290934 -17.21011087 79.16828055 -7.546875 74.23828125 C-5.43199534 73.00293092 -3.33585568 71.73457892 -1.265625 70.42578125 C1 69 1 69 2 69 C2 76.59 2 84.18 2 92 C-14.85276846 99.36097933 -34.43638747 103.02339206 -52.27734375 96.32421875 C-66.42288822 89.44424806 -73.2864777 79.37299604 -78.78125 64.94921875 C-83.53848352 49.17339289 -81.20113399 30.51687489 -74 16 C-71.94876098 12.68527959 -69.66325305 9.84116266 -67 7 C-66.34257813 6.28972656 -65.68515625 5.57945312 -65.0078125 4.84765625 C-47.89108926 -11.9869232 -19.84893219 -9.92446609 0 0 Z " fill="#191347" transform="translate(624,295)"/>
<path d="M0 0 C8.25 0 16.5 0 25 0 C25 10.89 25 21.78 25 33 C30.94 33 36.88 33 43 33 C43 39.27 43 45.54 43 52 C37.06 52 31.12 52 25 52 C25.08554675 59.49333929 25.17932028 66.98648932 25.28752708 74.47953415 C25.33744564 77.95897189 25.38377582 81.43837993 25.421875 84.91796875 C25.46584663 88.91946447 25.52547971 92.92059416 25.5859375 96.921875 C25.59748871 98.16990906 25.60903992 99.41794312 25.62094116 100.70379639 C25.64081085 101.86469788 25.66068054 103.02559937 25.68115234 104.22167969 C25.69447601 105.24316101 25.70779968 106.26464233 25.7215271 107.31707764 C26.00527729 110.05084362 26.53702984 111.6929313 28 114 C31.28689445 116.3541271 34.29884224 116.21089473 38.25 116.125 C41.09625 116.063125 41.09625 116.063125 44 116 C44 122.6 44 129.2 44 136 C40.54117738 136.08177602 37.08433371 136.14087227 33.625 136.1875 C32.65949219 136.21263672 31.69398438 136.23777344 30.69921875 136.26367188 C20.83523275 136.36297375 12.87762829 134.77759261 5.625 127.83203125 C0.57806364 122.14209579 -0.12820517 115.97437882 -0.11352539 108.64916992 C-0.11344986 107.3882402 -0.11337433 106.12731049 -0.11329651 104.82817078 C-0.10819069 103.46226969 -0.1029747 102.09636902 -0.09765625 100.73046875 C-0.0957897 99.32513988 -0.09436692 97.91981035 -0.09336853 96.51448059 C-0.089562 92.82705875 -0.07974774 89.1396767 -0.06866455 85.45227051 C-0.05841025 81.68498269 -0.05386232 77.9176884 -0.04882812 74.15039062 C-0.0381237 66.7669069 -0.0205421 59.38346411 0 52 C-4.95 52 -9.9 52 -15 52 C-15 45.73 -15 39.46 -15 33 C-10.05 33 -5.1 33 0 33 C0 22.11 0 11.22 0 0 Z " fill="#191447" transform="translate(460,257)"/>
<path d="M0 0 C0 7.92 0 15.84 0 24 C-3.3 24 -6.6 24 -10 24 C-18.58010146 25.2512648 -26.70194863 29.59144858 -31.92578125 36.57421875 C-35.20315997 41.93222453 -37.10572882 46.14990355 -37.20532227 52.48120117 C-37.22526749 53.60213669 -37.24521271 54.7230722 -37.26576233 55.87797546 C-37.28247482 57.08742325 -37.29918732 58.29687103 -37.31640625 59.54296875 C-37.33718735 60.78170242 -37.35796844 62.0204361 -37.37937927 63.29670715 C-37.43371797 66.58625256 -37.48395951 69.87582726 -37.53222656 73.16546631 C-37.58250646 76.52377804 -37.63810675 79.88200138 -37.69335938 83.24023438 C-37.80133512 89.82675504 -37.9004266 96.41332545 -38 103 C-46.25 103 -54.5 103 -63 103 C-63 69.34 -63 35.68 -63 1 C-55.08 1 -47.16 1 -39 1 C-38.505 8.92 -38.505 8.92 -38 17 C-36.865625 15.63875 -35.73125 14.2775 -34.5625 12.875 C-24.49816104 1.64531653 -14.96183238 -1.49618324 0 0 Z " fill="#191347" transform="translate(216,289)"/>
<path d="M0 0 C8.25 0 16.5 0 25 0 C25 44.55 25 89.1 25 135 C16.75 135 8.5 135 0 135 C0 90.45 0 45.9 0 0 Z " fill="#1A1448" transform="translate(415,257)"/>
<path d="M0 0 C8.25 0 16.5 0 25 0 C25 33.66 25 67.32 25 102 C16.75 102 8.5 102 0 102 C0 68.34 0 34.68 0 0 Z " fill="#1A1448" transform="translate(511,290)"/>
<path d="M0 0 C8.25 0 16.5 0 25 0 C25 33.66 25 67.32 25 102 C16.75 102 8.5 102 0 102 C0 68.34 0 34.68 0 0 Z " fill="#1A1448" transform="translate(119,290)"/>
<path d="M0 0 C8.25 0 16.5 0 25 0 C25 8.25 25 16.5 25 25 C16.75 25 8.5 25 0 25 C0 16.75 0 8.5 0 0 Z " fill="#1A1448" transform="translate(511,257)"/>
<path d="M0 0 C8.25 0 16.5 0 25 0 C25 8.25 25 16.5 25 25 C16.75 25 8.5 25 0 25 C0 16.75 0 8.5 0 0 Z " fill="#1A1448" transform="translate(119,257)"/>
</svg>
